# xmcd CD database file
#
# Track frame offsets:
#	150
#	14085
#	25350
#	37010
#	48730
#	62317
#	76157
#	89887
#	102852
#	116982
#	130460
#	145282
#	157592
#	175022
#	196392
#	209577
#	230182
#	244342
#	258675
#	273640
#	287490
#	302097
#	315680
#	329052
#
# Disc length: 4561 seconds
#
# Revision: 2
# Processed by: cddbd v1.5PL3 Copyright (c) Steve Scherf et al.
# Submitted via: CDex 1.51
#
DISCID=7611cf18
DTITLE=Benny Goodman - Benny Rides Again [CD1 of 2)
DYEAR=1900
DGENRE=Jazz
TTITLE0=Stealin' Apples
TTITLE1=Bolero
TTITLE2=I Thought of You
TTITLE3=Let's Dance
TTITLE4=Darn That Dream
TTITLE5=Honeysuckle Rose
TTITLE6=Opus Local 802
TTITLE7=Board Meeting
TTITLE8=Zaggin' with Zig
TTITLE9=How High the Moon
TTITLE10=The Hour of Parting
TTITLE11=Crazy Rhythm
TTITLE12=The Man I Love
TTITLE13=Benny Rides Again
TTITLE14=Frenesi
TTITLE15=Superman
TTITLE16=Let the Door Knob Hitcha
TTITLE17=Corn Silk
TTITLE18=Perfidia
TTITLE19=Scarecrow
TTITLE20=Fiesta in Blue
TTITLE21=Cherry
TTITLE22=Air Mail Special
TTITLE23=When the Sun Comes Out
EXTD=
EXTT0=
EXTT1=
EXTT2=
EXTT3=
EXTT4=
EXTT5=
EXTT6=
EXTT7=
EXTT8=
EXTT9=
EXTT10=
EXTT11=
EXTT12=
EXTT13=
EXTT14=
EXTT15=
EXTT16=
EXTT17=
EXTT18=
EXTT19=
EXTT20=
EXTT21=
EXTT22=
EXTT23=
PLAYORDER=
